Coordinates
version=1
nRows=21
nColumns=34
inDegrees=no

Units are S.I. units (second, meters, Newtons, ...)
If the header above contains a line with 'inDegrees', this indicates whether rotational values are in degrees (yes) or radians (no).

endheader
time	pelvis_tilt	pelvis_list	pelvis_rotation	pelvis_tx	pelvis_ty	pelvis_tz	hip_flexion_r	hip_adduction_r	hip_rotation_r	knee_angle_r	ankle_angle_r	subtalar_angle_r	mtp_angle_r	hip_flexion_l	hip_adduction_l	hip_rotation_l	knee_angle_l	ankle_angle_l	subtalar_angle_l	mtp_angle_l	lumbar_extension	lumbar_bending	lumbar_rotation	arm_flex_r	arm_add_r	arm_rot_r	elbow_flex_r	pro_sup_r	arm_flex_l	arm_add_l	arm_rot_l	elbow_flex_l	pro_sup_l
0	0.0840853	0.0625579	0.0472874	-0.179767	0.916689	-0.28978	0.414455	-0.0781863	-0.208051	0.149276	0.184518	0.00593552	-0.0151321	-0.412407	0.0440048	-0.099788	0.249047	0.351829	0.126902	-0.0180332	-0.207187	-0.0405402	-0.162002	-0.219372	-0.135684	-0.198717	0.536916	2.00375	0.278897	-0.196828	0.122222	1.00574	1.74322
0.01	0.0793699	0.0496959	0.0435078	-0.162381	0.919823	-0.287618	0.421014	-0.0604011	-0.189358	0.171864	0.137103	-0.0457954	-0.0151324	-0.407643	0.0268021	-0.111033	0.280235	0.33327	0.121106	-0.0180205	-0.195595	-0.0255176	-0.157222	-0.219032	-0.135705	-0.204241	0.527973	2.00601	0.260519	-0.189233	0.110545	1.00362	1.73812
0.02	0.0747946	0.0367818	0.0392435	-0.145218	0.922521	-0.285419	0.427307	-0.0431182	-0.173776	0.196091	0.0983774	-0.0902358	-0.0151327	-0.399132	0.00934088	-0.120597	0.31634	0.304832	0.109072	-0.0180078	-0.184563	-0.0103261	-0.151842	-0.218422	-0.135961	-0.209502	0.520449	2.00846	0.242131	-0.18099	0.0980895	0.999275	1.7351
0.03	0.0703478	0.0237913	0.0345038	-0.128296	0.924831	-0.283188	0.433279	-0.026288	-0.161238	0.221814	0.068276	-0.12748	-0.015133	-0.386811	-0.00842579	-0.128531	0.357423	0.266612	0.0909038	-0.0179951	-0.174087	0.00505622	-0.14586	-0.217535	-0.136457	-0.214479	0.51435	2.01108	0.223755	-0.172108	0.0848819	0.992673	1.73416
0.04	0.0660047	0.0106724	0.0293165	-0.111641	0.926806	-0.280931	0.438775	-0.0097906	-0.151564	0.248626	0.0465878	-0.157784	-0.0151333	-0.370543	-0.0266036	-0.134952	0.403572	0.218945	0.0669116	-0.0179824	-0.164164	0.0206742	-0.139265	-0.216356	-0.137202	-0.219116	0.509698	2.01386	0.205455	-0.162617	0.0710138	0.983762	1.73527
0.05	0.0617345	-0.00263297	0.0237357	-0.0952771	0.928501	-0.278651	0.443522	0.00654121	-0.144474	0.275825	0.0328855	-0.181566	-0.0151336	-0.350175	-0.0453181	-0.139985	0.454791	0.162591	0.0376793	-0.0179697	-0.154802	0.0365712	-0.132046	-0.214856	-0.138211	-0.2233	0.506517	2.01675	0.187356	-0.152587	0.0566807	0.972448	1.73837
0.06	0.0575126	-0.0161535	0.0178486	-0.0792291	0.929974	-0.276358	0.447156	0.0228657	-0.139627	0.302474	0.0264947	-0.199366	-0.0151339	-0.325624	-0.0646434	-0.143702	0.510856	0.0989166	0.00408083	-0.017957	-0.146027	0.0527483	-0.124205	-0.212992	-0.139502	-0.226866	0.504829	2.01971	0.169644	-0.142138	0.0421979	0.958615	1.74325
0.07	0.0533313	-0.0298487	0.011782	-0.0635201	0.931283	-0.274065	0.449271	0.039264	-0.136675	0.327534	0.026515	-0.211786	-0.0151342	-0.296949	-0.0845222	-0.146063	0.571212	0.030031	-0.0327501	-0.0179443	-0.137884	0.0691226	-0.115777	-0.210708	-0.14109	-0.229595	0.504628	2.02268	0.152547	-0.131449	0.0279857	0.942152	1.74963
0.08	0.0492098	-0.0435788	0.00570338	-0.0481682	0.932484	-0.271789	0.449482	0.05568	-0.135309	0.350017	0.0318925	-0.219417	-0.0151345	-0.264391	-0.104704	-0.146897	0.634946	-0.0411862	-0.0714903	-0.0179315	-0.130441	0.0854949	-0.106853	-0.207925	-0.14298	-0.231237	0.505863	2.02557	0.136308	-0.120747	0.0145257	0.922988	1.75709
0.09	0.0451969	-0.0570918	-0.000182627	-0.0331848	0.933627	-0.269557	0.447488	0.0718876	-0.135287	0.369139	0.0415226	-0.2228	-0.0151348	-0.228374	-0.124717	-0.145924	0.700825	-0.111208	-0.110726	-0.0179188	-0.123775	0.101539	-0.0975973	-0.204545	-0.14516	-0.231528	0.508428	2.02832	0.121146	-0.110301	0.00230042	0.901122	1.76515
0.1	0.0413665	-0.0700332	-0.0056454	-0.0185741	0.934759	-0.267395	0.443108	0.0874989	-0.136447	0.384421	0.0543535	-0.222392	-0.0151351	-0.189459	-0.1439	-0.142821	0.767412	-0.176154	-0.149064	-0.0179061	-0.117966	0.116823	-0.0882472	-0.200449	-0.147602	-0.230216	0.512161	2.03086	0.107229	-0.100398	-0.00826823	0.876649	1.77329
0.11	0.0378066	-0.0819876	-0.0104451	-0.00433318	0.935919	-0.265332	0.436305	0.102012	-0.138701	0.395722	0.0694624	-0.218578	-0.0151354	-0.148285	-0.161468	-0.137311	0.833196	-0.232222	-0.185237	-0.0178934	-0.113077	0.130848	-0.0790987	-0.195508	-0.150256	-0.227096	0.516858	2.03311	0.0946476	-0.0913183	-0.0168679	0.849773	1.78105
0.12	0.0346027	-0.0925399	-0.0143596	0.00954818	0.93714	-0.26339	0.427179	0.114892	-0.142006	0.403208	0.086092	-0.211691	-0.0151357	-0.105501	-0.176622	-0.129244	0.896719	-0.276196	-0.218194	-0.0178807	-0.109136	0.143117	-0.0704754	-0.189602	-0.153059	-0.222032	0.522295	2.03503	0.0833997	-0.0833151	-0.0233258	0.820808	1.78808
0.13	0.0318183	-0.101333	-0.0172158	0.0230865	0.938445	-0.261587	0.415938	0.125663	-0.146325	0.407261	0.103645	-0.202051	-0.015136	-0.0617121	-0.188658	-0.118661	0.956681	-0.305906	-0.247151	-0.0178679	-0.106122	0.153196	-0.062685	-0.182635	-0.155937	-0.214989	0.52826	2.03659	0.0733891	-0.0765905	-0.0276197	0.790169	1.79414
0.14	0.0294793	-0.108116	-0.0189207	0.0363033	0.939847	-0.259926	0.402857	0.133993	-0.151581	0.408369	0.121653	-0.19	-0.0151363	-0.0174595	-0.197071	-0.105822	1.01199	-0.320539	-0.271619	-0.0178552	-0.103964	0.16078	-0.0559726	-0.174557	-0.158815	-0.206041	0.534584	2.03778	0.0644321	-0.0712787	-0.0298758	0.758357	1.79917
0.15	0.027569	-0.112775	-0.019485	0.0492257	0.94135	-0.258403	0.388226	0.139754	-0.157618	0.407021	0.13973	-0.175928	-0.0151366	0.0267849	-0.201613	-0.0911915	1.06177	-0.320716	-0.291382	-0.0178425	-0.102544	0.165724	-0.0504803	-0.165375	-0.161625	-0.195382	0.541155	2.03861	0.0562731	-0.0674362	-0.0303587	0.725935	1.80321
0.16	0.0260346	-0.115341	-0.0190347	0.0618854	0.94295	-0.257	0.372316	0.143039	-0.164175	0.40362	0.15754	-0.160279	-0.0151369	0.0706024	-0.202316	-0.0753972	1.10538	-0.308326	-0.306471	-0.0178297	-0.101716	0.168058	-0.0462223	-0.155153	-0.164312	-0.183306	0.547931	2.03913	0.0486066	-0.0650386	-0.029454	0.6935	1.80645
0.17	0.0248034	-0.115973	-0.0178062	0.0743182	0.944638	-0.255693	0.355341	0.144141	-0.170891	0.398451	0.174775	-0.143529	-0.0151372	0.113607	-0.199476	-0.0591665	1.14237	-0.286143	-0.317113	-0.017817	-0.101327	0.167963	-0.0430825	-0.144001	-0.166841	-0.170183	0.554924	2.0394	0.0411033	-0.0639879	-0.0276436	0.661653	1.80915
0.18	0.0237984	-0.114928	-0.0161234	0.0865618	0.946399	-0.25445	0.337453	0.143495	-0.17734	0.391682	0.19116	-0.12615	-0.0151375	0.155434	-0.193599	-0.0432525	1.17246	-0.257341	-0.32369	-0.0178043	-0.10124	0.165742	-0.0408327	-0.132061	-0.169196	-0.156425	0.562194	2.03951	0.033438	-0.064127	-0.0254697	0.630965	1.8116
0.19	0.0229524	-0.112522	-0.0143606	0.0986532	0.948215	-0.25324	0.318754	0.141605	-0.183091	0.383402	0.206475	-0.108555	-0.0151378	0.195729	-0.185341	-0.0283641	1.19552	-0.225015	-0.326692	-0.0177915	-0.101351	0.161774	-0.0391679	-0.11948	-0.171382	-0.142443	0.569814	2.03951	0.025316	-0.065261	-0.0234899	0.601946	1.81406
0.2	0.022219	-0.109083	-0.0128981	0.110627	0.950064	-0.252033	0.299309	0.138968	-0.187778	0.373679	0.220576	-0.0910539	-0.0151381	0.234162	-0.175426	-0.0151094	1.21152	-0.191797	-0.326686	-0.0177788	-0.101604	0.156465	-0.0377506	-0.106393	-0.173419	-0.128616	0.577859	2.03949	0.0164959	-0.0671809	-0.0222253	0.575021	1.81678
